<?xml version="1.0" standalone="no"?>
<!DOCTYPE svg PUBLIC "-//W3C//DTD SVG 20010904//EN"
 "http://www.w3.org/TR/2001/REC-SVG-20010904/DTD/svg10.dtd">
<svg version="1.0" xmlns="http://www.w3.org/2000/svg"
 width="10.000000pt" height="10.000000pt" viewBox="0 0 10.000000 10.000000"
 preserveAspectRatio="xMidYMid meet">
<metadata>
Created by potrace 1.16, written by Peter Selinger 2001-2019
</metadata>
<g transform="translate(0.000000,10.000000) scale(0.020000,-0.020000)"
fill="#000000" stroke="none">
<path d="M226 471 c-3 -4 -17 -6 -32 -3 -18 3 -30 0 -36 -12 -5 -9 -20 -16
-33 -16 -18 0 -25 -5 -25 -20 0 -13 -7 -20 -20 -20 -15 0 -20 -7 -20 -25 0
-14 -7 -28 -16 -32 -9 -3 -14 -16 -13 -32 1 -14 -2 -34 -6 -43 -4 -10 -4 -26
0 -35 4 -10 7 -30 6 -44 -1 -16 4 -29 13 -32 9 -4 16 -18 16 -32 0 -18 5 -25
19 -25 10 0 21 -9 24 -20 3 -12 14 -20 26 -20 12 0 24 -7 28 -16 3 -9 16 -14
32 -13 14 1 34 -2 43 -6 10 -4 26 -4 35 0 10 4 30 7 44 6 16 -1 29 4 32 13 4
9 16 16 28 16 12 0 23 8 26 19 3 11 13 21 24 24 11 3 19 14 19 26 0 12 7 24
16 28 9 3 14 16 13 32 -1 14 2 34 6 44 4 9 4 25 0 35 -4 9 -7 29 -6 43 1 16
-4 29 -13 32 -9 4 -16 18 -16 32 0 18 -5 25 -20 25 -13 0 -20 7 -20 20 0 15
-7 20 -25 20 -13 0 -28 7 -33 16 -6 12 -18 15 -36 12 -15 -3 -29 -1 -32 3 -3
5 -14 9 -24 9 -10 0 -21 -4 -24 -9z m40 -32 c3 -6 16 -8 29 -5 15 4 25 1 29
-9 3 -8 14 -15 25 -15 10 0 21 -9 24 -20 3 -11 12 -20 21 -20 9 0 16 -8 16
-20 0 -11 7 -23 15 -26 10 -4 13 -13 9 -26 -3 -10 0 -25 6 -33 10 -12 10 -18
0 -30 -6 -8 -9 -23 -6 -33 4 -13 1 -22 -9 -26 -8 -3 -15 -15 -15 -26 0 -12 -7
-20 -16 -20 -9 0 -18 -9 -21 -20 -3 -11 -14 -20 -24 -20 -11 0 -22 -7 -25 -15
-4 -10 -13 -13 -26 -9 -10 3 -25 0 -33 -6 -12 -10 -18 -10 -30 0 -8 6 -23 9
-33 6 -13 -4 -22 -1 -26 9 -3 8 -14 15 -25 15 -10 0 -21 9 -24 20 -3 11 -12
20 -21 20 -9 0 -16 8 -16 20 0 11 -7 23 -15 26 -10 4 -13 13 -9 26 3 10 0 25
-6 33 -10 12 -10 18 0 30 6 8 9 23 6 33 -4 13 -1 22 9 26 8 3 15 15 15 26 0
12 7 20 16 20 9 0 18 9 21 20 3 11 14 20 24 20 11 0 22 7 25 15 4 10 14 13 29
9 13 -3 26 -1 29 5 4 6 11 11 16 11 5 0 12 -5 16 -11z"/>
<path d="M329 320 c-19 -10 -49 -32 -65 -49 l-30 -31 -39 20 c-22 11 -51 20
-65 20 -24 -1 -23 -2 17 -38 22 -20 49 -49 58 -64 24 -38 36 -35 64 14 13 24
47 66 74 95 52 55 47 66 -14 33z"/>
</g>
</svg>
